<?xml version="1.0" encoding="UTF-8"?>
<svg width="460px" height="100px" viewBox="0 0 460 100" version="1.1" xmlns="http://www.w3.org/2000/svg" xmlns:xlink="http://www.w3.org/1999/xlink">
    <title>logo</title>
    <g id="logo" stroke="none" stroke-width="1" fill="none" fill-rule="evenodd">
        <g id="Logo" transform="translate(10.000000, 4.470359)">
            <g id="Group" transform="translate(102.000000, 19.529641)" fill="#081F2C" fill-rule="nonzero">
                <path d="M21.0183086,0 L21.5946643,0.00743375174 C23.3171404,0.0520362622 24.9802964,0.29735007 26.5841325,0.743375174 C28.3661726,1.23895862 30.0322581,1.94002789 31.5823888,2.84658298 C33.1325196,3.75313808 34.5483871,4.84100418 35.8299913,6.11018131 C37.1115955,7.37935844 38.2101133,8.78754068 39.1255449,10.334728 C40.0409765,11.8819154 40.7489102,13.5378894 41.2493461,15.3026499 C41.749782,17.0674105 42,18.9046955 42,20.8145049 C42,23.6671316 41.4507411,26.3565783 40.3522232,28.8828452 C39.2537053,31.409112 37.7523976,33.6150628 35.8482999,35.5006974 C33.9442023,37.3863319 31.7166521,38.8730823 29.1656495,39.9609484 C26.6146469,41.0488145 23.8988666,41.5927476 21.0183086,41.5927476 L21.0183086,41.5927476 L10.5091543,41.5927476 L10.5091543,52 L0,52 L0,0 L21.0183086,0 Z M21.0183246,10.4 L10.5,10.4 L10.5,31.2 L21.0183246,31.2 C22.4598604,31.2 23.8158813,30.928223 25.0863874,30.384669 C26.3568935,29.841115 27.4685864,29.0982578 28.421466,28.1560976 C29.3743455,27.2139373 30.1256545,26.1087108 30.6753927,24.8404181 C31.2251309,23.5721254 31.5,22.2253194 31.5,20.8 C31.5,19.3746806 31.2251309,18.0278746 30.6753927,16.7595819 C30.1256545,15.4912892 29.3743455,14.3860627 28.421466,13.4439024 C27.4685864,12.5017422 26.3568935,11.758885 25.0863874,11.215331 C23.8158813,10.671777 22.4598604,10.4 21.0183246,10.4 L21.0183246,10.4 Z" id="Combined-Shape"></path>
                <path d="M65.9816914,0 C68.8866609,0 71.6146469,0.543933054 74.1656495,1.63179916 C76.7166521,2.71966527 78.9442023,4.20641562 80.8482999,6.09205021 C82.7523976,7.9776848 84.2537053,10.1836355 85.3522232,12.7099024 C86.4507411,15.2361692 87,17.9377034 87,20.8145049 L87,20.8145049 L87,52 L76.4908457,52 L76.4908457,41.5927476 L55.4725371,41.5927476 L55.4725371,52 L45,52 L45,20.8145049 L45.0064366,20.2771585 C45.0708029,17.6006963 45.6179163,15.0782775 46.6477768,12.7099024 C47.7462947,10.1836355 49.2414996,7.9776848 51.1333915,6.09205021 C53.0252833,4.20641562 55.2467306,2.71966527 57.7977332,1.63179916 C60.3487358,0.543933054 63.0767219,0 65.9816914,0 Z M66,10.4 C64.5609756,10.4 63.2012195,10.671777 61.9207317,11.215331 C60.6402439,11.758885 59.5243902,12.5017422 58.5731707,13.4439024 C57.6219512,14.3860627 56.8719512,15.4912892 56.3231707,16.7595819 C55.7743902,18.0278746 55.5,19.3746806 55.5,20.8 L55.5,20.8 L55.5,31.2 L76.5,31.2 L76.5,20.8 L76.4917683,20.3747596 C76.442378,19.1061045 76.1707317,17.9010453 75.6768293,16.7595819 C75.1280488,15.4912892 74.3780488,14.3860627 73.4268293,13.4439024 C72.4756098,12.5017422 71.3597561,11.758885 70.0792683,11.215331 C68.7987805,10.671777 67.4390244,10.4 66,10.4 Z" id="Combined-Shape"></path>
                <path d="M112.018309,0 L112.594664,0.00743375174 C114.31714,0.0520362622 115.980296,0.29735007 117.584133,0.743375174 C119.366173,1.23895862 121.032258,1.94002789 122.582389,2.84658298 C124.13252,3.75313808 125.548387,4.84100418 126.829991,6.11018131 C128.111595,7.37935844 129.210113,8.78754068 130.125545,10.334728 C131.040976,11.8819154 131.74891,13.5378894 132.249346,15.3026499 C132.749782,17.0674105 133,18.9046955 133,20.8145049 C133,22.6034403 132.774194,24.344026 132.322581,26.0362622 C131.870968,27.7284984 131.224063,29.3361227 130.381866,30.8591353 C129.539669,32.3821478 128.508282,33.7842864 127.287707,35.0655509 C126.067132,36.3468154 124.700087,37.4588563 123.186574,38.4016736 L123.186574,38.4016736 L129.008718,52 L117.840453,52 L113.263296,41.5202232 L101.509154,41.5927476 L101.509154,52 L91,52 L91,0 L112.018309,0 Z M112.018325,10.4 L101.5,10.4 L101.5,31.2 L112.018325,31.2 C113.45986,31.2 114.815881,30.928223 116.086387,30.384669 C117.356894,29.841115 118.468586,29.0982578 119.421466,28.1560976 C120.374346,27.2139373 121.125654,26.1087108 121.675393,24.8404181 C122.225131,23.5721254 122.5,22.2253194 122.5,20.8 C122.5,19.3746806 122.225131,18.0278746 121.675393,16.7595819 C121.125654,15.4912892 120.374346,14.3860627 119.421466,13.4439024 C118.468586,12.5017422 117.356894,11.758885 116.086387,11.215331 C114.815881,10.671777 113.45986,10.4 112.018325,10.4 L112.018325,10.4 Z" id="Combined-Shape"></path>
                <polygon id="Path" points="173 52 173 41.5927476 147.510682 41.5927476 147.510682 31.2217573 164.759919 31.2217573 164.759919 20.8145049 147.510682 20.8145049 147.510682 10.4072524 173 10.4072524 173 0 137 0 137 52"></polygon>
                <polygon id="Path" points="188.509154 52 188.509154 17.7684798 208.7585 52 220 52 220 0 209.490846 0 209.490846 34.2677824 189.2415 0 178 0 178 52"></polygon>
                <polygon id="Path" points="250.254577 52 250.254577 10.4072524 266 10.4072524 266 0 224 0 224 10.4072524 239.78204 10.4072524 239.78204 52"></polygon>
                <polygon id="Path" points="307 52 307 41.5927476 280.576693 41.5927476 280.576693 0 270 0 270 52"></polygon>
                <path d="M322.254577,52 L322.254577,35.7182706 C324.57367,35.1380753 326.697472,34.2073454 328.625981,32.9260809 C330.55449,31.6448164 332.214473,30.1157601 333.605929,28.3389121 C334.997384,26.5620642 336.077594,24.5918178 336.846556,22.4281729 C337.615519,20.2645281 338,17.986053 338,15.5927476 L338,15.5927476 L338,0 L327.527463,0 L327.527463,15.5927476 C327.527463,17.0190609 327.252833,18.3668061 326.703575,19.6359833 C326.154316,20.9051604 325.403662,22.0111576 324.451613,22.9539749 C323.499564,23.8967922 322.382738,24.6401674 321.101133,25.1841004 C319.819529,25.7280335 318.458588,26 317.018309,26 C315.57803,26 314.217088,25.7280335 312.935484,25.1841004 C311.65388,24.6401674 310.537053,23.8967922 309.585004,22.9539749 C308.632956,22.0111576 307.882302,20.9051604 307.333043,19.6359833 C306.783784,18.3668061 306.509154,17.0190609 306.509154,15.5927476 L306.509154,15.5927476 L306.509154,0 L296,0 L296,15.5927476 C296,17.986053 296.384481,20.2645281 297.153444,22.4281729 C297.922406,24.5918178 299.002616,26.5620642 300.394071,28.3389121 C301.785527,30.1157601 303.451613,31.6448164 305.392328,32.9260809 C307.333043,34.2073454 309.462947,35.1380753 311.78204,35.7182706 L311.78204,35.7182706 L311.78204,52 L322.254577,52 Z" id="Path"></path>
            </g>
            <path d="M49.2127172,0 C76.1269767,0 89.9802677,11.9583802 89.9802677,43.2804395 C89.9802677,65.9521507 76.1269767,90.8193689 50.8249503,90.8193689 C25.5229239,90.8193689 0,76.1733709 0,46.3412146 C0,21.5439922 26.3140389,0 49.2127172,0 Z M51.4437961,34.7739203 C27.040559,34.7739203 12.5843341,44.4044232 12.6552338,53.8367084 C12.7047499,60.3064414 16.8695495,80.1007678 51.4437961,80.1007678 C68.7478378,80.1007678 79.6552338,59.6517804 79.6552338,50.7296406 C79.6552338,35.4121491 60.6131795,34.7994494 52.4105127,34.7749414 L51.91223,34.7740479 C51.7510205,34.7739203 51.5947858,34.7739203 51.4437961,34.7739203 Z M24.6645085,19.5296406 C20.9475553,19.5296406 18.2414877,22.4397897 18.2414877,26.0296406 C18.2414877,29.6194915 21.5844278,32.5296406 24.6645085,32.5296406 C27.7445891,32.5296406 30.2414877,28.4198976 30.2414877,26.0296406 C30.2414877,23.6393836 27.6129141,19.5296406 24.6645085,19.5296406 Z M61.7913504,10.6099388 C58.2014995,10.6099388 55,15.1113626 55,19.5296406 C55,23.9479186 57.9101491,27.5296406 61.5,27.5296406 C64.3346007,27.5296406 68.5827007,25.6094743 68.5827007,19.5296406 C68.5827007,13.4001191 65.2972577,10.6099388 61.7913504,10.6099388 Z" id="Combined-Shape" fill="#6A9CD1"></path>
        </g>
    </g>
</svg>