<?xml version="1.0" encoding="UTF-8"?>
<svg width="440px" height="90px" viewBox="0 0 440 90" version="1.1" xmlns="http://www.w3.org/2000/svg" xmlns:xlink="http://www.w3.org/1999/xlink">
    <title>logo</title>
    <g id="logo" stroke="none" stroke-width="1" fill="none" fill-rule="evenodd">
        <g id="Logo">
            <g id="Group" transform="translate(102.000000, 19.823804)" fill="#081F2C" fill-rule="nonzero">
                <path d="M21.0183086,0 L21.5946643,0.00736668471 C23.3171404,0.051566793 24.9802964,0.294667389 26.5841325,0.736668471 C28.3661726,1.22778079 30.0322581,1.92252504 31.5823888,2.82090122 C33.1325196,3.7192774 34.5483871,4.79732883 35.8299913,6.05505548 C37.1115955,7.31278214 38.2101133,8.70825982 39.1255449,10.2414885 C40.0409765,11.7747172 40.7489102,13.415751 41.2493461,15.16459 C41.749782,16.913429 42,18.734138 42,20.6267172 C42,23.4536076 41.4507411,26.1187903 40.3522232,28.6222652 C39.2537053,31.1257402 37.7523976,33.3117889 35.8482999,35.1804114 C33.9442023,37.0490339 31.7166521,38.5223708 29.1656495,39.6004222 C26.6146469,40.6784736 23.8988666,41.2174993 21.0183086,41.2174993 L21.0183086,41.2174993 L10.5091543,41.2174993 L10.5091543,51.5308579 L0,51.5308579 L0,0 L21.0183086,0 Z M21.0183246,10.3061716 L10.5,10.3061716 L10.5,30.9185148 L21.0183246,30.9185148 C22.4598604,30.9185148 23.8158813,30.6491897 25.0863874,30.1105396 C26.3568935,29.5718896 27.4685864,28.8357344 28.421466,27.9020743 C29.3743455,26.9684142 30.1256545,25.873159 30.6753927,24.6163088 C31.2251309,23.3594586 31.5,22.0248034 31.5,20.6123432 C31.5,19.199883 31.2251309,17.8652278 30.6753927,16.6083776 C30.1256545,15.3515274 29.3743455,14.2562722 28.421466,13.3226121 C27.4685864,12.3889519 26.3568935,11.6527968 25.0863874,11.1141467 C23.8158813,10.5754966 22.4598604,10.3061716 21.0183246,10.3061716 L21.0183246,10.3061716 Z" id="Combined-Shape"></path>
                <path d="M65.9816914,0 C68.8866609,0 71.6146469,0.539025711 74.1656495,1.61707713 C76.7166521,2.69512855 78.9442023,4.1684655 80.8482999,6.03708796 C82.7523976,7.90571042 84.2537053,10.0917591 85.3522232,12.5952341 C86.4507411,15.0987091 87,17.7758701 87,20.6267172 L87,20.6267172 L87,51.5308579 L76.4908457,51.5308579 L76.4908457,41.2174993 L55.4725371,41.2174993 L55.4725371,51.5308579 L45,51.5308579 L45,20.6267172 L45.0064366,20.0942188 C45.0708029,17.4419034 45.6179163,14.9422419 46.6477768,12.5952341 C47.7462947,10.0917591 49.2414996,7.90571042 51.1333915,6.03708796 C53.0252833,4.1684655 55.2467306,2.69512855 57.7977332,1.61707713 C60.3487358,0.539025711 63.0767219,0 65.9816914,0 Z M66,10.3061716 C64.5609756,10.3061716 63.2012195,10.5754966 61.9207317,11.1141467 C60.6402439,11.6527968 59.5243902,12.3889519 58.5731707,13.3226121 C57.6219512,14.2562722 56.8719512,15.3515274 56.3231707,16.6083776 C55.7743902,17.8652278 55.5,19.199883 55.5,20.6123432 L55.5,20.6123432 L55.5,30.9185148 L76.5,30.9185148 L76.5,20.6123432 L76.4917683,20.1909393 C76.442378,18.93373 76.1707317,17.7395427 75.6768293,16.6083776 C75.1280488,15.3515274 74.3780488,14.2562722 73.4268293,13.3226121 C72.4756098,12.3889519 71.3597561,11.6527968 70.0792683,11.1141467 C68.7987805,10.5754966 67.4390244,10.3061716 66,10.3061716 Z" id="Combined-Shape"></path>
                <path d="M112.018309,0 L112.594664,0.00736668471 C114.31714,0.051566793 115.980296,0.294667389 117.584133,0.736668471 C119.366173,1.22778079 121.032258,1.92252504 122.582389,2.82090122 C124.13252,3.7192774 125.548387,4.79732883 126.829991,6.05505548 C128.111595,7.31278214 129.210113,8.70825982 130.125545,10.2414885 C131.040976,11.7747172 131.74891,13.415751 132.249346,15.16459 C132.749782,16.913429 133,18.734138 133,20.6267172 C133,22.3995129 132.774194,24.1243951 132.322581,25.801364 C131.870968,27.4783329 131.224063,29.0714533 130.381866,30.5807253 C129.539669,32.0899973 128.508282,33.4794858 127.287707,34.7491908 C126.067132,36.0188958 124.700087,37.1209039 123.186574,38.0552152 L123.186574,38.0552152 L129.008718,51.5308579 L117.840453,51.5308579 L113.263296,41.1456293 L101.509154,41.2174993 L101.509154,51.5308579 L91,51.5308579 L91,0 L112.018309,0 Z M112.018325,10.3061716 L101.5,10.3061716 L101.5,30.9185148 L112.018325,30.9185148 C113.45986,30.9185148 114.815881,30.6491897 116.086387,30.1105396 C117.356894,29.5718896 118.468586,28.8357344 119.421466,27.9020743 C120.374346,26.9684142 121.125654,25.873159 121.675393,24.6163088 C122.225131,23.3594586 122.5,22.0248034 122.5,20.6123432 C122.5,19.199883 122.225131,17.8652278 121.675393,16.6083776 C121.125654,15.3515274 120.374346,14.2562722 119.421466,13.3226121 C118.468586,12.3889519 117.356894,11.6527968 116.086387,11.1141467 C114.815881,10.5754966 113.45986,10.3061716 112.018325,10.3061716 L112.018325,10.3061716 Z" id="Combined-Shape"></path>
                <polygon id="Path" points="173 51.5308579 173 41.2174993 147.510682 41.2174993 147.510682 30.9400758 164.759919 30.9400758 164.759919 20.6267172 147.510682 20.6267172 147.510682 10.3133586 173 10.3133586 173 0 137 0 137 51.5308579"></polygon>
                <polygon id="Path" points="188.509154 51.5308579 188.509154 17.6081732 208.7585 51.5308579 220 51.5308579 220 0 209.490846 0 209.490846 33.9586198 189.2415 0 178 0 178 51.5308579"></polygon>
                <polygon id="Path" points="250.254577 51.5308579 250.254577 10.3133586 266 10.3133586 266 0 224 0 224 10.3133586 239.78204 10.3133586 239.78204 51.5308579"></polygon>
                <polygon id="Path" points="307 51.5308579 307 41.2174993 280.576693 41.2174993 280.576693 0 270 0 270 51.5308579"></polygon>
                <path d="M322.254577,51.5308579 L322.254577,35.3960217 C324.57367,34.8210609 326.697472,33.898728 328.625981,32.629023 C330.55449,31.359318 332.214473,29.8440569 333.605929,28.0832395 C334.997384,26.3224222 336.077594,24.3699513 336.846556,22.2258268 C337.615519,20.0817023 338,17.8237835 338,15.4520704 L338,15.4520704 L338,0 L327.527463,0 L327.527463,15.4520704 C327.527463,16.8655156 327.252833,18.2011015 326.703575,19.4588282 C326.154316,20.7165548 325.403662,21.8125738 324.451613,22.746885 C323.499564,23.6811962 322.382738,24.4178647 321.101133,24.9568904 C319.819529,25.4959161 318.458588,25.765429 317.018309,25.765429 C315.57803,25.765429 314.217088,25.4959161 312.935484,24.9568904 C311.65388,24.4178647 310.537053,23.6811962 309.585004,22.746885 C308.632956,21.8125738 307.882302,20.7165548 307.333043,19.4588282 C306.783784,18.2011015 306.509154,16.8655156 306.509154,15.4520704 L306.509154,15.4520704 L306.509154,0 L296,0 L296,15.4520704 C296,17.8237835 296.384481,20.0817023 297.153444,22.2258268 C297.922406,24.3699513 299.002616,26.3224222 300.394071,28.0832395 C301.785527,29.8440569 303.451613,31.359318 305.392328,32.629023 C307.333043,33.898728 309.462947,34.8210609 311.78204,35.3960217 L311.78204,35.3960217 L311.78204,51.5308579 L322.254577,51.5308579 Z" id="Path"></path>
            </g>
            <path d="M49.2235094,0 C76.143671,0 90,11.8504921 90,42.889965 C90,65.3571329 76.143671,90 50.836096,90 C25.528521,90 0,75.4861376 0,45.9231259 C0,21.3496231 26.3198094,0 49.2235094,0 Z M52.5025078,35.0004277 L51.7885623,35 L51.7885623,35 C27.3853252,35 12.9291003,44.5610583 13,53.9253282 C13.0495161,60.3484086 17.2143157,80 51.7885623,80 C69.092604,80 80,59.6984683 80,50.8406652 C80,35.47522 60.5591701,35.0142566 52.5025078,35.0004277 Z M24.4230207,20 C20.7060675,20 18,22.9101491 18,26.5 C18,30.0898509 21.3429401,33 24.4230207,33 C27.5031013,33 30,28.890257 30,26.5 C30,24.109743 27.3714263,20 24.4230207,20 Z M62,11 C58.2998587,11 55,15.5227868 55,19.9620333 C55,24.4012797 57.9995572,28 61.6996985,28 C64.6213863,28 69,26.0707209 69,19.9620333 C69,13.803422 65.6136188,11 62,11 Z" id="Combined-Shape" fill="#6A9CD1"></path>
        </g>
    </g>
</svg>