<?xml version="1.0" encoding="UTF-8"?>
<svg width="440px" height="90px" viewBox="0 0 440 90" version="1.1" xmlns="http://www.w3.org/2000/svg" xmlns:xlink="http://www.w3.org/1999/xlink">
    <title>logo</title>
    <g id="logo" stroke="none" stroke-width="1" fill="none" fill-rule="evenodd">
        <g id="Logo">
            <g id="Group" transform="translate(100.000000, 19.823804)" fill="#081F2C" fill-rule="nonzero">
                <path d="M21.0183086,0 L21.5946643,0.00736668471 C23.3171404,0.051566793 24.9802964,0.294667389 26.5841325,0.736668471 C28.3661726,1.22778079 30.0322581,1.92252504 31.5823888,2.82090122 C33.1325196,3.7192774 34.5483871,4.79732883 35.8299913,6.05505548 C37.1115955,7.31278214 38.2101133,8.70825982 39.1255449,10.2414885 C40.0409765,11.7747172 40.7489102,13.415751 41.2493461,15.16459 C41.749782,16.913429 42,18.734138 42,20.6267172 C42,23.4536076 41.4507411,26.1187903 40.3522232,28.6222652 C39.2537053,31.1257402 37.7523976,33.3117889 35.8482999,35.1804114 C33.9442023,37.0490339 31.7166521,38.5223708 29.1656495,39.6004222 C26.6146469,40.6784736 23.8988666,41.2174993 21.0183086,41.2174993 L21.0183086,41.2174993 L10.5091543,41.2174993 L10.5091543,51.5308579 L0,51.5308579 L0,0 L21.0183086,0 Z M21.0183246,10.3061716 L10.5,10.3061716 L10.5,30.9185148 L21.0183246,30.9185148 C22.4598604,30.9185148 23.8158813,30.6491897 25.0863874,30.1105396 C26.3568935,29.5718896 27.4685864,28.8357344 28.421466,27.9020743 C29.3743455,26.9684142 30.1256545,25.873159 30.6753927,24.6163088 C31.2251309,23.3594586 31.5,22.0248034 31.5,20.6123432 C31.5,19.199883 31.2251309,17.8652278 30.6753927,16.6083776 C30.1256545,15.3515274 29.3743455,14.2562722 28.421466,13.3226121 C27.4685864,12.3889519 26.3568935,11.6527968 25.0863874,11.1141467 C23.8158813,10.5754966 22.4598604,10.3061716 21.0183246,10.3061716 L21.0183246,10.3061716 Z" id="Combined-Shape"></path>
                <path d="M66.9816914,0 C69.8866609,0 72.6146469,0.539025711 75.1656495,1.61707713 C77.7166521,2.69512855 79.9442023,4.1684655 81.8482999,6.03708796 C83.7523976,7.90571042 85.2537053,10.0917591 86.3522232,12.5952341 C87.4507411,15.0987091 88,17.7758701 88,20.6267172 L88,20.6267172 L88,51.5308579 L77.4908457,51.5308579 L77.4908457,41.2174993 L56.4725371,41.2174993 L56.4725371,51.5308579 L46,51.5308579 L46,20.6267172 L46.0064366,20.0942188 C46.0708029,17.4419034 46.6179163,14.9422419 47.6477768,12.5952341 C48.7462947,10.0917591 50.2414996,7.90571042 52.1333915,6.03708796 C54.0252833,4.1684655 56.2467306,2.69512855 58.7977332,1.61707713 C61.3487358,0.539025711 64.0767219,0 66.9816914,0 Z M67,10.3061716 C65.5609756,10.3061716 64.2012195,10.5754966 62.9207317,11.1141467 C61.6402439,11.6527968 60.5243902,12.3889519 59.5731707,13.3226121 C58.6219512,14.2562722 57.8719512,15.3515274 57.3231707,16.6083776 C56.7743902,17.8652278 56.5,19.199883 56.5,20.6123432 L56.5,20.6123432 L56.5,30.9185148 L77.5,30.9185148 L77.5,20.6123432 L77.4917683,20.1909393 C77.442378,18.93373 77.1707317,17.7395427 76.6768293,16.6083776 C76.1280488,15.3515274 75.3780488,14.2562722 74.4268293,13.3226121 C73.4756098,12.3889519 72.3597561,11.6527968 71.0792683,11.1141467 C69.7987805,10.5754966 68.4390244,10.3061716 67,10.3061716 Z" id="Combined-Shape"></path>
                <path d="M114.018309,0 L114.594664,0.00736668471 C116.31714,0.051566793 117.980296,0.294667389 119.584133,0.736668471 C121.366173,1.22778079 123.032258,1.92252504 124.582389,2.82090122 C126.13252,3.7192774 127.548387,4.79732883 128.829991,6.05505548 C130.111595,7.31278214 131.210113,8.70825982 132.125545,10.2414885 C133.040976,11.7747172 133.74891,13.415751 134.249346,15.16459 C134.749782,16.913429 135,18.734138 135,20.6267172 C135,22.3995129 134.774194,24.1243951 134.322581,25.801364 C133.870968,27.4783329 133.224063,29.0714533 132.381866,30.5807253 C131.539669,32.0899973 130.508282,33.4794858 129.287707,34.7491908 C128.067132,36.0188958 126.700087,37.1209039 125.186574,38.0552152 L125.186574,38.0552152 L131.008718,51.5308579 L119.840453,51.5308579 L115.263296,41.1456293 L103.509154,41.2174993 L103.509154,51.5308579 L93,51.5308579 L93,0 L114.018309,0 Z M114.018325,10.3061716 L103.5,10.3061716 L103.5,30.9185148 L114.018325,30.9185148 C115.45986,30.9185148 116.815881,30.6491897 118.086387,30.1105396 C119.356894,29.5718896 120.468586,28.8357344 121.421466,27.9020743 C122.374346,26.9684142 123.125654,25.873159 123.675393,24.6163088 C124.225131,23.3594586 124.5,22.0248034 124.5,20.6123432 C124.5,19.199883 124.225131,17.8652278 123.675393,16.6083776 C123.125654,15.3515274 122.374346,14.2562722 121.421466,13.3226121 C120.468586,12.3889519 119.356894,11.6527968 118.086387,11.1141467 C116.815881,10.5754966 115.45986,10.3061716 114.018325,10.3061716 L114.018325,10.3061716 Z" id="Combined-Shape"></path>
                <polygon id="Path" points="175 51.5308579 175 41.2174993 149.510682 41.2174993 149.510682 30.9400758 166.759919 30.9400758 166.759919 20.6267172 149.510682 20.6267172 149.510682 10.3133586 175 10.3133586 175 0 139 0 139 51.5308579"></polygon>
                <polygon id="Path" points="190.509154 51.5308579 190.509154 17.6081732 210.7585 51.5308579 222 51.5308579 222 0 211.490846 0 211.490846 33.9586198 191.2415 0 180 0 180 51.5308579"></polygon>
                <polygon id="Path" points="252.254577 51.5308579 252.254577 10.3133586 268 10.3133586 268 0 226 0 226 10.3133586 241.78204 10.3133586 241.78204 51.5308579"></polygon>
                <polygon id="Path" points="309 51.5308579 309 41.2174993 282.576693 41.2174993 282.576693 0 272 0 272 51.5308579"></polygon>
                <path d="M324.254577,51.5308579 L324.254577,35.3960217 C326.57367,34.8210609 328.697472,33.898728 330.625981,32.629023 C332.55449,31.359318 334.214473,29.8440569 335.605929,28.0832395 C336.997384,26.3224222 338.077594,24.3699513 338.846556,22.2258268 C339.615519,20.0817023 340,17.8237835 340,15.4520704 L340,0 L329.527463,0 L329.527463,15.4520704 C329.527463,16.8655156 329.252833,18.2011015 328.703575,19.4588282 C328.154316,20.7165548 327.403662,21.8125738 326.451613,22.746885 C325.499564,23.6811962 324.382738,24.4178647 323.101133,24.9568904 C321.819529,25.4959161 320.458588,25.765429 319.018309,25.765429 C317.57803,25.765429 316.217088,25.4959161 314.935484,24.9568904 C313.65388,24.4178647 312.537053,23.6811962 311.585004,22.746885 C310.632956,21.8125738 309.882302,20.7165548 309.333043,19.4588282 C308.783784,18.2011015 308.509154,16.8655156 308.509154,15.4520704 L308.509154,0 L298,0 L298,15.4520704 C298,17.8237835 298.384481,20.0817023 299.153444,22.2258268 C299.922406,24.3699513 301.002616,26.3224222 302.394071,28.0832395 C303.785527,29.8440569 305.451613,31.359318 307.392328,32.629023 C309.333043,33.898728 311.462947,34.8210609 313.78204,35.3960217 L313.78204,51.5308579 L324.254577,51.5308579 Z" id="Path"></path>
            </g>
            <path d="M49.2235094,0 C76.143671,0 90,11.8504921 90,42.889965 C90,65.3571329 76.143671,90 50.836096,90 C25.528521,90 0,75.4861376 0,45.9231259 C0,21.3496231 26.3198094,0 49.2235094,0 Z M52.5025078,35.0004277 L51.7885623,35 L51.7885623,35 C27.3853252,35 12.9291003,44.5610583 13,53.9253282 C13.0495161,60.3484086 17.2143157,80 51.7885623,80 C69.092604,80 80,59.6984683 80,50.8406652 C80,35.47522 60.5591701,35.0142566 52.5025078,35.0004277 Z M24.4230207,20 C20.7060675,20 18,22.9101491 18,26.5 C18,30.0898509 21.3429401,33 24.4230207,33 C27.5031013,33 30,28.890257 30,26.5 C30,24.109743 27.3714263,20 24.4230207,20 Z M62,11 C58.2998587,11 55,15.5227868 55,19.9620333 C55,24.4012797 57.9995572,28 61.6996985,28 C64.6213863,28 69,26.0707209 69,19.9620333 C69,13.803422 65.6136188,11 62,11 Z" id="Combined-Shape" fill="#6A9CD1"></path>
        </g>
    </g>
</svg>